<svg xmlns="http://www.w3.org/2000/svg" viewBox="0 0 1200 630" role="img" aria-label="aite">
  <rect width="1200" height="630" fill="#f7f9fb"/>
  <rect x="92" y="78" width="1016" height="474" rx="34" fill="#ffffff" stroke="#e5e7eb" stroke-width="4"/>
  <g transform="translate(142 128)">
    <rect width="174" height="174" rx="40" fill="#2563eb"/>
    <path fill="#ffffff" d="M45 51h84c10 0 18 8 18 18v58c0 10-8 18-18 18H45c-10 0-18-8-18-18V69c0-10 8-18 18-18Zm0 27v49h84V78H45Z"/>
    <path fill="#dbeafe" d="M45 78h84v19H45z"/>
    <path fill="#ffffff" d="M56 34h16v32H56zm47 0h16v32h-16z"/>
    <path fill="#22c55e" d="M58 112h58c5 0 9 4 9 9s-4 9-9 9H58c-5 0-9-4-9-9s4-9 9-9Z"/>
  </g>
  <text x="360" y="218" fill="#1f2933" font-family="system-ui, -apple-system, BlinkMacSystemFont, 'Segoe UI', sans-serif" font-size="96" font-weight="800">aite</text>
  <text x="360" y="302" fill="#2563eb" font-family="system-ui, -apple-system, BlinkMacSystemFont, 'Segoe UI', sans-serif" font-size="46" font-weight="800">AIに聞いて、貼るだけ。</text>
  <text x="360" y="372" fill="#6b7280" font-family="system-ui, -apple-system, BlinkMacSystemFont, 'Segoe UI', sans-serif" font-size="34" font-weight="600">予定調整をもっと軽く。</text>
  <g transform="translate(360 430)">
    <rect width="560" height="46" rx="23" fill="#dbeafe"/>
    <rect x="28" y="10" width="128" height="26" rx="13" fill="#74c0f2"/>
    <rect x="180" y="10" width="206" height="26" rx="13" fill="#bbf7d0"/>
    <rect x="410" y="10" width="104" height="26" rx="13" fill="#fee2e2"/>
  </g>
</svg>
